<svg xmlns="http://www.w3.org/2000/svg" viewBox="0 0 150 150">
  <!-- Body -->
  <ellipse cx="75" cy="85" rx="50" ry="40" fill="#ffb6c1"/>
  <!-- Head -->
  <circle cx="75" cy="55" r="35" fill="#ffb6c1"/>
  <!-- Ears -->
  <ellipse cx="45" cy="30" rx="12" ry="18" fill="#ffb6c1" transform="rotate(-20 45 30)"/>
  <ellipse cx="105" cy="30" rx="12" ry="18" fill="#ffb6c1" transform="rotate(20 105 30)"/>
  <ellipse cx="45" cy="30" rx="8" ry="12" fill="#ff9999" transform="rotate(-20 45 30)"/>
  <ellipse cx="105" cy="30" rx="8" ry="12" fill="#ff9999" transform="rotate(20 105 30)"/>
  <!-- Eyes -->
  <circle cx="60" cy="50" r="5" fill="#333"/>
  <circle cx="90" cy="50" r="5" fill="#333"/>
  <!-- Snout -->
  <ellipse cx="75" cy="70" rx="18" ry="12" fill="#ff9999"/>
  <circle cx="70" cy="70" r="3" fill="#333"/>
  <circle cx="80" cy="70" r="3" fill="#333"/>
  <!-- Tail -->
  <path d="M125 85 Q135 75, 130 85 Q125 95, 135 90" stroke="#ffb6c1" stroke-width="6" fill="none" stroke-linecap="round"/>
  <!-- Legs -->
  <rect x="45" y="115" width="12" height="20" rx="4" fill="#ffb6c1"/>
  <rect x="93" y="115" width="12" height="20" rx="4" fill="#ffb6c1"/>
</svg>
