<svg xmlns="http://www.w3.org/2000/svg" viewBox="0 0 200 200" width="200" height="200">
  <!-- Simple cup illustration for reading game -->
  <rect width="200" height="200" fill="#f5f5f5" rx="20"/>

  <!-- Cup body -->
  <path d="M 55 70 L 65 160 Q 100 170 135 160 L 145 70 Z" fill="#e53935"/>

  <!-- Cup rim -->
  <ellipse cx="100" cy="70" rx="45" ry="12" fill="#c62828"/>
  <ellipse cx="100" cy="68" rx="40" ry="10" fill="#ffebee"/>

  <!-- Handle -->
  <path d="M 145 85 Q 175 85 175 115 Q 175 145 145 145" stroke="#c62828" stroke-width="12" fill="none"/>
  <path d="M 145 90 Q 168 90 168 115 Q 168 140 145 140" stroke="#e53935" stroke-width="6" fill="none"/>

  <!-- Steam -->
  <path d="M 80 45 Q 75 35 80 25" stroke="#bdbdbd" stroke-width="3" fill="none" stroke-linecap="round"/>
  <path d="M 100 50 Q 95 38 100 28" stroke="#bdbdbd" stroke-width="3" fill="none" stroke-linecap="round"/>
  <path d="M 120 45 Q 115 35 120 25" stroke="#bdbdbd" stroke-width="3" fill="none" stroke-linecap="round"/>

  <!-- Highlight -->
  <ellipse cx="75" cy="110" rx="8" ry="25" fill="white" opacity="0.2"/>
</svg>
